<svg id="Layer_1" xmlns="http://www.w3.org/2000/svg" viewBox="0 0 122 122" width="122" height="122"><style>.st0{fill:#05A3E8;} .st1{fill:#FFFFFF;}</style><path d="M55.3 85.8c-1.4 0-2.4 1.1-2.4 2.4 0 1.3 1.1 2.4 2.4 2.4h.1c1.3 0 2.4-1.1 2.4-2.4-.1-1.4-1.1-2.4-2.5-2.4zM30.2 38.1H18c-1.3 0-2.4 1.1-2.4 2.4 0 1.3 1.1 2.4 2.4 2.4h12.2c1.3 0 2.4-1.1 2.4-2.4-.1-1.3-1.1-2.4-2.4-2.4zM37.1 38.1c-1.4 0-2.4 1.1-2.4 2.4 0 1.3 1.1 2.4 2.4 2.4h.1c1.3 0 2.4-1.1 2.4-2.4-.2-1.3-1.2-2.4-2.5-2.4z"/><path d="M117 53h-6.9v-5.3c0-10.5-8.5-19-19.1-19.1H62.4V2.4c0-1.3-1-2.4-2.4-2.4H38.6c-5.3 0-9.5 4.3-9.5 9.5 0 5.3 4.3 9.5 9.5 9.5h9.5v9.5h-29C8.5 28.6 0 37.1 0 47.7v50c0 1.3 1.1 2.4 2.4 2.4h33.4v19.5c0 1.3 1.1 2.4 2.4 2.4H60c1.3 0 2.4-1.1 2.4-2.4v-19.5H117c1.8 0 3.4-.9 4.3-2.4l.1-.2c.4-.7.6-1.6.6-2.4V58c0-2.7-2.2-5-5-5zm0 4.8c.1 0 .3.1.3.3v5.2c0 1.6-.9 3-2.3 3.6L89.1 81.8c-1.3.7-2.8.7-4.1 0L76.7 77V57.8H117zM91 33.4c7.9 0 14.3 6.4 14.3 14.3V53H76.7v-5.3c0-7.9 6.4-14.3 14.3-14.3zM38.6 14.3c-2.6 0-4.7-2.2-4.7-4.8 0-2.6 2.1-4.7 4.7-4.7h19.1v48.8c0 1.3-1 2.4-2.3 2.4-1.3 0-2.4-1-2.4-2.3v-37c0-1.3-1.1-2.4-2.4-2.4h-12zm9.5 102.9h-7.6V100h7.6v17.2zm9.6 0h-4.8V100h4.8v17.2zM72 85.8h-9.8c-1.3 0-2.4 1.1-2.4 2.4 0 1.3 1.1 2.4 2.4 2.4H72v4.8H4.8V47.7c0-7.9 6.4-14.3 14.3-14.3h29.1v20.3c0 3.9 3.2 7.2 7.2 7.2 3.9 0 7.1-3.2 7.1-7.2V33.4h16C74.3 37 72 42.2 72 47.7v38.1zm4.7 9.5V82.5l5.9 3.4c2.7 1.6 6.1 1.6 8.8 0l7.5-4.3 15.6 13.7H76.7zm40.5-3.9l-13.9-12.3 13.8-8 .1-.1v20.4z"/><path class="st0" d="M100 20c6.1 0 11 4.9 11 11s-4.9 11-11 11-11-4.9-11-11 4.9-11 11-11z"/><path class="st1" d="M98.8 34.7L94.1 30l1-.9 3.7 3.6 6.1-6.1 1 .9z"/></svg>